<?xml version="1.0" encoding="UTF-8"?>
<svg version="1.1" xmlns="http://www.w3.org/2000/svg" width="512" height="512">
<path d="M0 0 C4.00578414 4.22832771 5.90005576 8.30150558 6.1171875 14.1640625 C3.73158077 48.25515225 -8.38744194 82.35320777 -30 109 C-30.42439676 109.52476425 -30.84879353 110.0495285 -31.2860508 110.5901947 C-38.06326626 118.90827368 -45.21114889 126.13417623 -53.42323303 133.02208138 C-84.99213866 158.12982007 -84.99213866 158.12982007 -100.6875 193.33984375 C-101.36640265 203.63836267 -100.62484235 214.10661529 -98.79821777 224.26512146 C-98.64268433 225.17012894 -98.48715088 226.07513641 -98.3269043 227.00756836 C-98.16989548 227.7832164 -98.01288666 228.55886444 -97.85112 229.35801697 C-98.28263018 237.01547641 -103.8895583 242.48128296 -109.04418945 247.609375 C-109.74554016 248.32255386 -110.44689087 249.03573273 -111.16949463 249.77052307 C-113.47376742 252.10749889 -115.79252627 254.42939906 -118.11328125 256.75 C-119.72784016 258.37487934 -121.34202624 260.00012921 -122.95585632 261.62573242 C-126.33237392 265.02164046 -129.71674572 268.40948787 -133.10620117 271.79248047 C-137.44942797 276.12969285 -141.76692739 280.49157019 -146.07827473 284.86044312 C-149.40080548 288.21991227 -152.73919225 291.56326709 -156.08232689 294.90222168 C-157.68149147 296.50426027 -159.27505261 298.11191259 -160.86284828 299.72521973 C-163.08149396 301.97576042 -165.32119359 304.20302438 -167.56762695 306.42578125 C-168.21877975 307.0958168 -168.86993256 307.76585236 -169.54081726 308.45619202 C-172.75818743 311.59338087 -174.28042413 312.88785429 -178.83952332 313.59838867 C-179.88248062 313.40092041 -180.92543793 313.20345215 -182 313 C-184.45517512 309.31723731 -184.24259705 307.53366613 -184.22705078 303.1418457 C-184.22734283 302.44890411 -184.22763489 301.75596252 -184.22793579 301.04202271 C-184.22654319 298.75314788 -184.21098557 296.46459916 -184.1953125 294.17578125 C-184.19158211 292.58823321 -184.18873526 291.00068288 -184.18673706 289.41313171 C-184.1791026 285.23572426 -184.15945575 281.05845599 -184.1373291 276.88110352 C-184.11686663 272.61802045 -184.10773449 268.3549149 -184.09765625 264.09179688 C-184.07620965 255.72780073 -184.042076 247.36391768 -184 239 C-185.0621875 239.3609375 -186.124375 239.721875 -187.21875 240.09375 C-188.64563005 240.56311844 -190.07272511 241.03183359 -191.5 241.5 C-192.19609375 241.73847656 -192.8921875 241.97695313 -193.609375 242.22265625 C-199.20641265 244.03651104 -204.83655482 245.26537807 -210.5 243 C-210.995 242.67 -211.49 242.34 -212 242 C-213.00160156 242.81984375 -214.00320313 243.6396875 -215.03515625 244.484375 C-216.37739036 245.57318029 -217.71985035 246.66170717 -219.0625 247.75 C-219.71927734 248.28882813 -220.37605469 248.82765625 -221.05273438 249.3828125 C-225.17768156 252.71528215 -229.14348825 255.82629627 -234 258 C-239.94682914 256.36270815 -243.53366785 251.94293809 -247.75 247.6875 C-248.52988281 246.92759766 -249.30976563 246.16769531 -250.11328125 245.38476562 C-251.22509766 244.27198242 -251.22509766 244.27198242 -252.359375 243.13671875 C-253.03452148 242.46342529 -253.70966797 241.79013184 -254.40527344 241.09643555 C-256.25225652 238.66838231 -256.76741619 237.02758895 -257 234 C-255.59375 231.421875 -255.59375 231.421875 -253.5 228.75 C-252.76910156 227.79480469 -252.03820312 226.83960938 -251.28515625 225.85546875 C-249.82774459 224.034327 -248.35761312 222.22324229 -246.87109375 220.42578125 C-246.23300781 219.64589844 -245.59492188 218.86601562 -244.9375 218.0625 C-244.34839844 217.37285156 -243.75929688 216.68320313 -243.15234375 215.97265625 C-241.7737827 214.08314176 -241.7737827 214.08314176 -242.29296875 211.98046875 C-242.52628906 211.32691406 -242.75960937 210.67335937 -243 210 C-243.63964371 203.6035629 -242.44659357 198.69190148 -240.4765625 192.671875 C-240.23977783 191.93243652 -240.00299316 191.19299805 -239.7590332 190.43115234 C-239.17793929 188.61907611 -238.58968726 186.80929802 -238 185 C-238.88283157 185.00444122 -239.76566315 185.00888245 -240.67524719 185.01345825 C-248.98892246 185.05350708 -257.30256539 185.0839702 -265.61631489 185.10362434 C-269.89065473 185.11406835 -274.16491496 185.12823877 -278.43920898 185.15087891 C-282.56296256 185.17258534 -286.68663949 185.18456398 -290.81044579 185.18975449 C-292.38494257 185.1934542 -293.95943509 185.2006787 -295.53389931 185.21146011 C-297.73664084 185.22594594 -299.93906432 185.22797918 -302.1418457 185.22705078 C-303.39649124 185.231492 -304.65113678 185.23593323 -305.94380188 185.24050903 C-309 185 -309 185 -312 183 C-312.64467651 179.59504736 -312.77440937 177.20185133 -310.84487915 174.20730019 C-309.12067625 172.2280447 -307.30830849 170.39710135 -305.42578125 168.56762695 C-304.72662094 167.86101929 -304.02746063 167.15441162 -303.30711365 166.4263916 C-300.99240448 164.09617414 -298.65339968 161.79216394 -296.3125 159.48828125 C-294.6937467 157.87243194 -293.07625085 156.25532203 -291.45996094 154.63700867 C-288.06758623 151.2478521 -284.66364935 147.87090503 -281.25048828 144.50268555 C-276.88507295 140.19382415 -272.54418188 135.86124903 -268.21110535 131.5198946 C-264.87139133 128.17737618 -261.52153916 124.84517534 -258.16830444 121.51622581 C-256.56469761 119.9228043 -254.96361205 118.3268411 -253.36514282 116.72826576 C-251.1229934 114.49010318 -248.868177 112.26552896 -246.609375 110.04418945 C-245.95553329 109.38696396 -245.30169159 108.72973846 -244.6280365 108.05259705 C-240.05497262 103.59374283 -235.04287111 99.17861099 -228.3916626 98.88476562 C-227.63109558 99.05685547 -226.87052856 99.22894531 -226.08691406 99.40625 C-225.19784363 99.57772552 -224.30877319 99.74920105 -223.39276123 99.9258728 C-222.44330627 100.11533478 -221.49385132 100.30479675 -220.515625 100.5 C-203.49711101 102.95675096 -185.37595748 104.61461255 -170.87265396 93.89020157 C-154.32578746 80.77449173 -139.98852364 64.41813118 -126.35479736 48.36782837 C-101.10713308 18.83303514 -63.37102671 1.58956834 -25.375 -3.875 C-24.02486816 -4.07367676 -24.02486816 -4.07367676 -22.64746094 -4.27636719 C-14.21427944 -5.37170784 -6.80932536 -5.70083053 0 0 Z " fill="#5088E1" transform="translate(483,28)"/>
<path d="M0 0 C1.08051636 0.00030212 2.16103271 0.00060425 3.27429199 0.00091553 C4.41418579 0.02156067 5.55407959 0.04220581 6.72851562 0.06347656 C8.50941589 0.07196625 8.50941589 0.07196625 10.32629395 0.08062744 C14.09620494 0.10291147 17.86514476 0.15309571 21.63476562 0.20410156 C24.19985601 0.22417675 26.76496138 0.24242573 29.33007812 0.25878906 C35.59863532 0.30275027 41.86663106 0.36958351 48.13476562 0.45410156 C44.82046288 4.39452796 41.48834655 8.22263889 37.77929688 11.80175781 C28.48571923 20.86838256 19.65669576 29.85308963 12.13476562 40.45410156 C11.70905273 41.04610352 11.28333984 41.63810547 10.84472656 42.24804688 C8.22233416 45.92486362 5.72794453 49.65937166 3.34863281 53.49804688 C2.5163751 54.83916691 1.66986848 56.17151848 0.81152344 57.49609375 C-2.0768064 62.01908632 -4.46674691 66.24801345 -5.86523438 71.45410156 C-4.71468816 76.15815772 -2.11913708 78.96288018 1.13476562 82.45410156 C2.63890218 84.34665467 4.13890087 86.2425037 5.63476562 88.14160156 C9.40081719 92.63760823 13.23287412 97.07545161 17.13476562 101.45410156 C20.1705637 100.09706753 22.25187604 98.57861836 24.58300781 96.21704102 C25.23758972 95.55908035 25.89217163 94.90111969 26.56658936 94.22322083 C27.61353973 93.15608101 27.61353973 93.15608101 28.68164062 92.06738281 C29.41167297 91.3321489 30.14170532 90.59691498 30.89385986 89.83940125 C33.22896051 87.48649906 35.5572901 85.12704485 37.88476562 82.76660156 C40.19876429 80.42483684 42.51425183 78.08459642 44.83282471 75.74736023 C46.27378937 74.29430348 47.71207537 72.83858348 49.14715576 71.37971497 C53.06039029 67.42817504 57.07328875 63.66727401 61.29606628 60.04754639 C65.16717257 56.69278679 68.85367447 53.13181377 72.578125 49.61621094 C74.42084135 47.88494146 76.27550448 46.16757694 78.13476562 44.45410156 C78.76753418 43.85871582 79.40030273 43.26333008 80.05224609 42.64990234 C80.66600098 42.09157715 81.27975586 41.53325195 81.91210938 40.95800781 C82.45988037 40.45213135 83.00765137 39.94625488 83.57202148 39.42504883 C84.08772705 39.10463623 84.60343262 38.78422363 85.13476562 38.45410156 C86.12476563 38.78410156 87.11476563 39.11410156 88.13476562 39.45410156 C87.61132813 43.30906966 86.78276963 45.31046989 84.07226562 48.09082031 C83.43933594 48.75146484 82.80640625 49.41210938 82.15429688 50.09277344 C81.48785156 50.76888672 80.82140625 51.445 80.13476562 52.14160156 C78.84192775 53.47770886 77.55027628 54.81496508 76.25976562 56.15332031 C75.62521957 56.80794754 74.99067352 57.46257477 74.3368988 58.13703918 C72.15702474 60.43068074 70.05084748 62.77502855 67.95141602 65.14233398 C63.43602167 70.17209908 58.7376658 74.98038961 53.94335938 79.74316406 C53.1126442 80.57246429 52.28192902 81.40176453 51.42604065 82.25619507 C48.81048478 84.8662192 46.19144784 87.47271705 43.57226562 90.07910156 C41.78231912 91.86402422 39.99260352 93.64917848 38.203125 95.43457031 C33.84966657 99.77709047 29.49335601 104.11673269 25.13476562 108.45410156 C32.04376398 117.28348079 45.27834231 129.51302829 56.13476562 133.45410156 C58.38595549 132.8833214 58.38595549 132.8833214 60.62695312 131.59472656 C61.4898999 131.14363525 62.35284668 130.69254395 63.24194336 130.2277832 C64.15532471 129.72496826 65.06870605 129.22215332 66.00976562 128.70410156 C66.95215088 128.19548584 67.89453613 127.68687012 68.86547852 127.1628418 C76.75889247 122.82284586 84.09473327 118.06472917 91.13476562 112.45410156 C91.66489258 112.03676758 92.19501953 111.61943359 92.74121094 111.18945312 C102.26137058 103.60890406 110.77567507 94.98085829 119.29125977 86.31225586 C120.16387451 85.42578369 121.03648926 84.53931152 121.93554688 83.62597656 C122.72098877 82.82256836 123.50643066 82.01916016 124.31567383 81.19140625 C126.13476562 79.45410156 126.13476562 79.45410156 127.13476562 79.45410156 C127.23648482 86.99792925 127.30636538 94.54157896 127.35449219 102.0859375 C127.37456291 104.65045786 127.40182563 107.21493271 127.43652344 109.77929688 C127.48523918 113.47309627 127.50778075 117.16628865 127.52539062 120.86035156 C127.54603577 122.00024536 127.56668091 123.14013916 127.58795166 124.3145752 C127.58825378 125.39509155 127.58855591 126.47560791 127.58886719 127.58886719 C127.59774963 128.53040649 127.60663208 129.4719458 127.61578369 130.4420166 C126.35405231 138.3428469 121.59533566 143.58705886 116.09057617 149.06347656 C115.38922546 149.77665543 114.68787476 150.48983429 113.965271 151.22462463 C111.66099821 153.56160045 109.34223935 155.88350063 107.02148438 158.20410156 C105.40692547 159.8289809 103.79273938 161.45423077 102.1789093 163.07983398 C98.80239171 166.47574202 95.41801991 169.86358943 92.02856445 173.24658203 C87.68533765 177.58379441 83.36783824 181.94567175 79.0564909 186.31454468 C75.73396015 189.67401383 72.39557338 193.01736866 69.05243874 196.35632324 C67.45327415 197.95836183 65.85971301 199.56601416 64.27191734 201.17932129 C62.05327166 203.42986198 59.81357204 205.65712594 57.56713867 207.87988281 C56.91598587 208.54991837 56.26483307 209.21995392 55.59394836 209.91029358 C52.3765782 213.04748243 50.8543415 214.34195586 46.29524231 215.05249023 C45.252285 214.85502197 44.2093277 214.65755371 43.13476562 214.45410156 C40.6795905 210.77133888 40.89216858 208.98776769 40.90771484 204.59594727 C40.90742279 203.90300568 40.90713074 203.21006409 40.90682983 202.49612427 C40.90822243 200.20724944 40.92378006 197.91870073 40.93945312 195.62988281 C40.94318351 194.04233478 40.94603036 192.45478444 40.94802856 190.86723328 C40.95566303 186.68982583 40.97530987 182.51255756 40.99743652 178.33520508 C41.017899 174.07212202 41.02703114 169.80901646 41.03710938 165.54589844 C41.05855597 157.18190229 41.09268962 148.81801924 41.13476562 140.45410156 C40.07257813 140.81503906 39.01039063 141.17597656 37.91601562 141.54785156 C36.48913558 142.01722 35.06204052 142.48593515 33.63476562 142.95410156 C32.93867188 143.19257813 32.24257813 143.43105469 31.52539062 143.67675781 C25.92835297 145.49061261 20.2982108 146.71947963 14.63476562 144.45410156 C14.13976562 144.12410156 13.64476562 143.79410156 13.13476562 143.45410156 C12.13316406 144.27394531 11.1315625 145.09378906 10.09960938 145.93847656 C8.75737527 147.02728185 7.41491527 148.11580873 6.07226562 149.20410156 C5.41548828 149.74292969 4.75871094 150.28175781 4.08203125 150.83691406 C-0.04291593 154.16938371 -4.00872263 157.28039784 -8.86523438 159.45410156 C-14.81206351 157.81680972 -18.39890223 153.39703965 -22.61523438 149.14160156 C-23.39511719 148.38169922 -24.175 147.62179687 -24.97851562 146.83886719 C-26.09033203 145.72608398 -26.09033203 145.72608398 -27.22460938 144.59082031 C-27.89975586 143.91752686 -28.57490234 143.2442334 -29.27050781 142.55053711 C-31.11749089 140.12248388 -31.63265057 138.48169051 -31.86523438 135.45410156 C-30.45898437 132.87597656 -30.45898437 132.87597656 -28.36523438 130.20410156 C-27.63433594 129.24890625 -26.9034375 128.29371094 -26.15039062 127.30957031 C-24.69297897 125.48842856 -23.22284749 123.67734385 -21.73632812 121.87988281 C-21.09824219 121.1 -20.46015625 120.32011719 -19.80273438 119.51660156 C-19.21363281 118.82695312 -18.62453125 118.13730469 -18.01757812 117.42675781 C-16.63901707 115.53724332 -16.63901707 115.53724332 -17.15820312 113.43457031 C-17.39152344 112.78101563 -17.62484375 112.12746094 -17.86523438 111.45410156 C-18.50487808 105.05766447 -17.31182795 100.14600305 -15.34179688 94.12597656 C-15.10501221 93.38653809 -14.86822754 92.64709961 -14.62426758 91.88525391 C-14.04317367 90.07317768 -13.45492164 88.26339958 -12.86523438 86.45410156 C-13.74806595 86.45854279 -14.63089752 86.46298401 -15.54048157 86.46755981 C-23.85415683 86.50760864 -32.16779977 86.53807176 -40.48154926 86.55772591 C-44.7558891 86.56816991 -49.03014934 86.58234034 -53.30444336 86.60498047 C-57.42819694 86.6266869 -61.55187387 86.63866554 -65.67568016 86.64385605 C-67.25017694 86.64755577 -68.82466946 86.65478027 -70.39913368 86.66556168 C-72.60187521 86.6800475 -74.80429869 86.68208075 -77.00708008 86.68115234 C-78.26172562 86.68559357 -79.51637115 86.69003479 -80.80903625 86.6946106 C-83.86523438 86.45410156 -83.86523438 86.45410156 -86.86523438 84.45410156 C-87.50991089 81.04914892 -87.63964374 78.65595289 -85.71011353 75.66140175 C-83.98591062 73.68214626 -82.17354287 71.85120291 -80.29101562 70.02172852 C-79.59185532 69.31512085 -78.89269501 68.60851318 -78.17234802 67.88049316 C-75.85763886 65.5502757 -73.51863406 63.2462655 -71.17773438 60.94238281 C-69.55898108 59.3265335 -67.94148523 57.70942359 -66.32519531 56.09111023 C-62.9328206 52.70195367 -59.52888373 49.32500659 -56.11572266 45.95678711 C-51.75030733 41.64792571 -47.40941626 37.31535059 -43.07633972 32.97399616 C-39.73662571 29.63147774 -36.38677353 26.2992769 -33.03353882 22.97032738 C-31.42993198 21.37690586 -29.82884643 19.78094266 -28.2303772 18.18236732 C-25.98822778 15.94420474 -23.73341138 13.71963052 -21.47460938 11.49829102 C-20.82076767 10.84106552 -20.16692596 10.18384003 -19.49327087 9.50669861 C-13.83830202 3.99295937 -8.16905736 -0.07706658 0 0 Z " fill="#B2D6E4" transform="translate(257.865234375,126.5458984375)"/>
<path d="M0 0 C2.52433441 2.00277771 4.73100096 4.10690309 6.890625 6.5 C7.37144531 6.97695313 7.85226563 7.45390625 8.34765625 7.9453125 C17.70112891 17.74869903 19.28584321 30.08831605 19.10546875 43.00390625 C18.9315399 48.22501264 18.03299082 52.72087625 15.890625 57.5 C15.39755859 58.61181641 15.39755859 58.61181641 14.89453125 59.74609375 C8.13460469 73.24255612 -4.8345529 82.89166989 -16.32421875 92.18359375 C-19.16468862 94.54600418 -21.89113399 96.99829028 -24.609375 99.5 C-29.0792262 103.61378909 -33.69982393 107.47087297 -38.42578125 111.28515625 C-41.05646057 113.45632827 -43.58879924 115.70241357 -46.109375 118 C-50.40015837 121.91058738 -54.84473301 125.58028803 -59.3671875 129.21875 C-63.00011805 132.24101701 -66.41747684 135.47235228 -69.8203125 138.75 C-72.31335826 140.65594624 -74.02289677 141.15099893 -77.109375 141.5 C-76.72495343 135.605536 -74.16642856 132.29756392 -70.734375 127.75 C-66.17201401 121.51401257 -61.92064076 115.17496923 -57.921875 108.5625 C-57.45281738 107.78745117 -56.98375977 107.01240234 -56.50048828 106.21386719 C-54.20441729 102.41256324 -54.20441729 102.41256324 -52.109375 98.5 C-68.36223334 105.15632138 -82.37308502 118.10721716 -96.04443359 128.87597656 C-97.94276375 130.36896453 -99.84678868 131.85420127 -101.75390625 133.3359375 C-108.86694123 138.87299444 -115.84871721 144.55420556 -122.78881836 150.30639648 C-127.21528139 153.96713604 -131.69334001 157.54531608 -136.234375 161.0625 C-141.89485503 165.45597524 -147.32014644 170.08153213 -152.7109375 174.80053711 C-157.19025341 178.71935406 -161.7513886 182.51749032 -166.375 186.265625 C-169.43959359 188.76983576 -172.46556682 191.31596573 -175.484375 193.875 C-176.02271973 194.33011963 -176.56106445 194.78523926 -177.11572266 195.25415039 C-179.9760869 197.67606154 -182.82076913 200.1141939 -185.6484375 202.57421875 C-186.22803223 203.07453613 -186.80762695 203.57485352 -187.40478516 204.09033203 C-188.51074954 205.04549749 -189.61228302 206.00582685 -190.70849609 206.97216797 C-193.68747078 209.53551611 -196.36445739 211.28152497 -200.109375 212.5 C-200.769375 211.18 -201.429375 209.86 -202.109375 208.5 C-201.07490234 207.28376953 -201.07490234 207.28376953 -200.01953125 206.04296875 C-195.52612784 200.75116731 -191.04797689 195.45218431 -186.671875 190.0625 C-182.71494082 185.19950576 -178.64501558 180.44299797 -174.55322266 175.69384766 C-170.75893207 171.28106717 -167.05860344 166.79977416 -163.390625 162.28125 C-160.81094302 159.13615827 -158.18291245 156.03532832 -155.546875 152.9375 C-151.72478162 148.43968824 -147.98120961 143.89327894 -144.31640625 139.265625 C-142.61905655 137.13868059 -140.90847446 135.02632863 -139.18359375 132.921875 C-133.00492628 125.37958758 -126.947295 117.7664846 -121.05810547 109.99560547 C-118.27303934 106.32199051 -115.46620582 102.67063849 -112.6015625 99.05859375 C-106.57261953 91.4456567 -100.76272959 83.76078625 -95.359375 75.6875 C-94.60708618 74.56710327 -94.60708618 74.56710327 -93.83959961 73.42407227 C-91.51014493 69.88344717 -89.47631567 66.54519071 -88.109375 62.5 C-99.61099243 68.77197575 -110.30029551 75.96458447 -120.98046875 83.53515625 C-121.76550781 84.08042969 -122.55054687 84.62570312 -123.359375 85.1875 C-124.00390625 85.64511719 -124.6484375 86.10273438 -125.3125 86.57421875 C-127.109375 87.5 -127.109375 87.5 -131.109375 87.5 C-130.68785062 82.67003318 -128.37773417 80.18712696 -125.109375 76.875 C-124.09912746 75.81481502 -123.0913541 74.75226746 -122.0859375 73.6875 C-121.58223633 73.15511719 -121.07853516 72.62273437 -120.55957031 72.07421875 C-118.42711335 69.75939004 -116.45595652 67.32728514 -114.484375 64.875 C-111.62055717 61.31815864 -108.68591172 57.87460948 -105.609375 54.5 C-102.51382304 51.10401318 -99.55786293 47.63828469 -96.671875 44.0625 C-92.80646186 39.28283262 -88.72551453 34.75494907 -84.5625 30.234375 C-82.23221232 27.63692058 -80.03690332 24.97594286 -77.859375 22.25 C-60.30479554 0.65631376 -60.30479554 0.65631376 -49.109375 -4.5 C-48.45195312 -4.82097656 -47.79453125 -5.14195312 -47.1171875 -5.47265625 C-32.12282533 -12.39065596 -13.08548925 -9.41402104 0 0 Z " fill="#F5C002" transform="translate(225.109375,276.5)"/>
<path d="M0 0 C0.1017192 7.54382769 0.17159975 15.0874774 0.21972656 22.63183594 C0.23979728 25.1963563 0.26706001 27.76083115 0.30175781 30.32519531 C0.35047355 34.01899471 0.37301513 37.71218709 0.390625 41.40625 C0.41127014 42.5461438 0.43191528 43.6860376 0.45318604 44.86047363 C0.45363922 46.48124817 0.45363922 46.48124817 0.45410156 48.13476562 C0.46298401 49.07630493 0.47186646 50.01784424 0.48101807 50.98791504 C-0.78071331 58.88874534 -5.53942996 64.1329573 -11.04418945 69.609375 C-12.09621552 70.6791433 -12.09621552 70.6791433 -13.16949463 71.77052307 C-15.47376742 74.10749889 -17.79252627 76.42939906 -20.11328125 78.75 C-21.72784016 80.37487934 -23.34202624 82.00012921 -24.95585632 83.62573242 C-28.33237392 87.02164046 -31.71674572 90.40948787 -35.10620117 93.79248047 C-39.44942797 98.12969285 -43.76692739 102.49157019 -48.07827473 106.86044312 C-51.40080548 110.21991227 -54.73919225 113.56326709 -58.08232689 116.90222168 C-59.68149147 118.50426027 -61.27505261 120.11191259 -62.86284828 121.72521973 C-65.08149396 123.97576042 -67.32119359 126.20302438 -69.56762695 128.42578125 C-70.21877975 129.0958168 -70.86993256 129.76585236 -71.54081726 130.45619202 C-74.75818743 133.59338087 -76.28042413 134.88785429 -80.83952332 135.59838867 C-81.88248062 135.40092041 -82.92543793 135.20345215 -84 135 C-86.45531647 131.31702529 -86.2728067 129.44696039 -86.31884766 125.05004883 C-86.32889328 124.34735367 -86.3389389 123.64465851 -86.34928894 122.92066956 C-86.38016427 120.59946506 -86.39716787 118.27837613 -86.4140625 115.95703125 C-86.43277068 114.34705101 -86.45234383 112.73708061 -86.4727478 111.12712097 C-86.52411211 106.89065345 -86.56371473 102.65415412 -86.60089111 98.4175415 C-86.64090388 94.0940359 -86.69200864 89.77066308 -86.7421875 85.44726562 C-86.83899767 76.9649344 -86.92338606 68.48253756 -87 60 C-86.44061737 59.78056732 -85.88123474 59.56113464 -85.30490112 59.33505249 C-82.71993464 58.31843649 -80.13731866 57.29597091 -77.5546875 56.2734375 C-76.67514404 55.92853271 -75.79560059 55.58362793 -74.8894043 55.22827148 C-60.76683189 49.62221577 -47.94642588 42.38398386 -36 33 C-35.1961084 32.36964844 -35.1961084 32.36964844 -34.37597656 31.7265625 C-24.86313802 24.14844127 -16.35400593 15.52158073 -7.84350586 6.8581543 C-6.97089111 5.97168213 -6.09827637 5.08520996 -5.19921875 4.171875 C-4.41377686 3.3684668 -3.62833496 2.56505859 -2.8190918 1.73730469 C-1 0 -1 0 0 0 Z " fill="#B2D6E4" transform="translate(385,206)"/>
<path d="M0 0 C0.99 0.33 1.98 0.66 3 1 C2.4765625 4.8549681 1.64800401 6.85636833 -1.0625 9.63671875 C-1.69542969 10.29736328 -2.32835937 10.95800781 -2.98046875 11.63867188 C-3.98013672 12.6528418 -3.98013672 12.6528418 -5 13.6875 C-6.29283788 15.0236073 -7.58448935 16.36086351 -8.875 17.69921875 C-9.50954605 18.35384598 -10.1440921 19.00847321 -10.79786682 19.68293762 C-12.97774088 21.97657918 -15.08391814 24.32092699 -17.18334961 26.68823242 C-21.69874396 31.71799751 -26.39709982 36.52628805 -31.19140625 41.2890625 C-32.02212143 42.11836273 -32.85283661 42.94766296 -33.70872498 43.80209351 C-36.32428084 46.41211764 -38.94331779 49.01861549 -41.5625 51.625 C-43.3524465 53.40992266 -45.1421621 55.19507691 -46.93164062 56.98046875 C-51.28509905 61.32298891 -55.64140962 65.66263113 -60 70 C-57.22668735 73.54416485 -54.51292854 76.427111 -51 79.25 C-50.0409375 80.02085937 -49.081875 80.79171875 -48.09375 81.5859375 C-43.95750407 84.81346274 -39.76012534 87.94980271 -35.53125 91.0546875 C-33.50759402 92.60990459 -31.73349635 94.13766271 -30 96 C-31.00160156 96.39832031 -32.00320313 96.79664063 -33.03515625 97.20703125 C-34.37762296 97.74214036 -35.72006981 98.27729928 -37.0625 98.8125 C-37.71927734 99.07353516 -38.37605469 99.33457031 -39.05273438 99.60351562 C-42.3053712 100.90136579 -45.53977872 102.22521163 -48.75 103.625 C-55.19614087 106.35221344 -61.00139061 107.46657396 -68 107 C-70.234375 105.984375 -70.234375 105.984375 -72 105 C-73.00160156 105.81984375 -74.00320313 106.6396875 -75.03515625 107.484375 C-76.37739036 108.57318029 -77.71985035 109.66170717 -79.0625 110.75 C-79.71927734 111.28882813 -80.37605469 111.82765625 -81.05273438 112.3828125 C-85.17768156 115.71528215 -89.14348825 118.82629627 -94 121 C-99.94682914 119.36270815 -103.53366785 114.94293809 -107.75 110.6875 C-108.52988281 109.92759766 -109.30976563 109.16769531 -110.11328125 108.38476562 C-111.22509766 107.27198242 -111.22509766 107.27198242 -112.359375 106.13671875 C-113.03452148 105.46342529 -113.70966797 104.79013184 -114.40527344 104.09643555 C-116.25225652 101.66838231 -116.76741619 100.02758895 -117 97 C-115.59375 94.421875 -115.59375 94.421875 -113.5 91.75 C-112.76910156 90.79480469 -112.03820312 89.83960938 -111.28515625 88.85546875 C-109.82774459 87.034327 -108.35761312 85.22324229 -106.87109375 83.42578125 C-106.23300781 82.64589844 -105.59492188 81.86601562 -104.9375 81.0625 C-104.05384766 80.02802734 -104.05384766 80.02802734 -103.15234375 78.97265625 C-101.7737827 77.08314176 -101.7737827 77.08314176 -102.29296875 74.98046875 C-102.52628906 74.32691406 -102.75960937 73.67335938 -103 73 C-104.29048869 60.09511314 -97.73353089 46.76332783 -93 35 C-92.01 35 -91.02 35 -90 35 C-88.45703125 36.8359375 -88.45703125 36.8359375 -86.8125 39.375 C-81.17487105 47.77803431 -74.7380361 55.46182212 -68 63 C-64.96420193 61.64296597 -62.88288958 60.1245168 -60.55175781 57.76293945 C-59.8971759 57.10497879 -59.24259399 56.44701813 -58.56817627 55.76911926 C-57.87020935 55.05769272 -57.17224243 54.34626617 -56.453125 53.61328125 C-55.72309265 52.87804733 -54.9930603 52.14281342 -54.24090576 51.38529968 C-51.90580512 49.0323975 -49.57747553 46.67294328 -47.25 44.3125 C-44.93600133 41.97073528 -42.6205138 39.63049486 -40.30194092 37.29325867 C-38.86097625 35.84020192 -37.42269026 34.38448192 -35.98760986 32.9256134 C-32.07437534 28.97407348 -28.06147688 25.21317245 -23.83869934 21.59344482 C-19.96759306 18.23868522 -16.28109115 14.67771221 -12.55664062 11.16210938 C-10.71392427 9.43083989 -8.85926115 7.71347537 -7 6 C-6.05084717 5.10692139 -6.05084717 5.10692139 -5.08251953 4.19580078 C-4.16188721 3.35831299 -4.16188721 3.35831299 -3.22265625 2.50390625 C-2.67488525 1.99802979 -2.12711426 1.49215332 -1.56274414 0.97094727 C-1.04703857 0.65053467 -0.53133301 0.33012207 0 0 Z " fill="#B0D5E3" transform="translate(343,165)"/>
<path d="M0 0 C7.19221834 4.0591003 11.78099554 9.23768555 14.21484375 17.25 C15.45120399 26.70707134 14.55543435 35.54679362 8.671875 43.27734375 C3.72745647 48.6290828 -3.00995779 52.81263197 -10.38671875 53.48828125 C-20.70389998 53.74154539 -27.47493951 51.2082934 -35.05859375 44.18359375 C-40.86016382 37.6863603 -42.28081593 30.03606854 -42.1875 21.5546875 C-41.27915785 14.09393546 -37.77145035 7.36417955 -31.84765625 2.6875 C-30.51584807 1.83884779 -29.1624304 1.02268333 -27.78515625 0.25 C-26.20734375 -0.678125 -26.20734375 -0.678125 -24.59765625 -1.625 C-16.26757756 -4.08305601 -7.88950736 -3.68262256 0 0 Z " fill="#6C6D70" transform="translate(403.78515625,96.75)"/>
<path d="M0 0 C8.55991832 6.25953808 14.90348397 15.35307978 16.77734375 25.88671875 C18.07104313 36.32492334 16.55610271 46.83877614 10.25 55.5625 C9.21054402 56.79071291 8.14797865 57.99976611 7.0625 59.1875 C6.29292969 60.10982422 6.29292969 60.10982422 5.5078125 61.05078125 C-0.31233857 67.55319884 -9.03184766 71.83529932 -17.74609375 72.4609375 C-30.25219962 72.85379235 -39.41890432 71.2789139 -49.3125 63 C-57.14895999 55.44071384 -62.03665866 46.5744857 -62.47094727 35.61474609 C-62.62461213 22.77662768 -59.55974236 13.80695391 -50.625 4.125 C-36.21016279 -9.08655438 -16.47776618 -10.3297593 0 0 Z M-44.9375 14.1875 C-50.17984877 21.7383017 -52.367421 29.07791707 -50.9375 38.1875 C-48.80850455 46.45509901 -44.64465586 52.32990069 -37.9375 57.5 C-30.59128009 61.6322487 -22.68367789 62.68923976 -14.44140625 60.53515625 C-6.38664579 57.28254067 -0.17730192 51.9404191 3.37109375 43.984375 C6.013875 37.11612995 6.22572323 29.39780066 4.26171875 22.2890625 C0.83963294 14.64522821 -5.13978356 9.69673732 -12.6875 6.25 C-24.89523986 2.38340511 -35.67621319 5.89559104 -44.9375 14.1875 Z " fill="#B0D4E3" transform="translate(412.9375,88.8125)"/>
<path d="M0 0 C4.00578414 4.22832771 5.90005576 8.30150558 6.1171875 14.1640625 C5.27292339 26.22886893 4.0625512 39.87600858 -1 51 C-9.92884403 46.88295376 -17.54844313 42.52338049 -25 36 C-25.67289062 35.47019531 -26.34578125 34.94039062 -27.0390625 34.39453125 C-36.21121579 26.99468646 -44.51628051 15.91767468 -49 5 C-49 3.68 -49 2.36 -49 1 C-9.9316851 -8.31489915 -9.9316851 -8.31489915 0 0 Z " fill="#F1BE07" transform="translate(483,28)"/>
<path d="M0 0 C5.08393165 2.59180829 9.502565 6.54438077 11.8125 11.875 C12.72917234 22.26395317 12.72917234 22.26395317 9.57421875 27.16796875 C6.79343679 30.40416413 3.43569581 32.90995896 0.08203125 35.52734375 C-4.2156644 38.9753049 -8.17384439 42.73598112 -12.17578125 46.51953125 C-15.01071009 49.00940651 -17.82116996 50.98564536 -21 53 C-19.62712658 49.30123909 -17.93644547 46.0485524 -15.875 42.6875 C-15.33617187 41.80449219 -14.79734375 40.92148437 -14.2421875 40.01171875 C-13.62730469 39.01591797 -13.62730469 39.01591797 -13 38 C-22.30577237 43.8337323 -30.71708367 50.46739007 -39.15478516 57.47070312 C-41.67389171 59.55851517 -44.21238183 61.62225231 -46.75 63.6875 C-52.53086861 68.42130109 -58.26746927 73.20788443 -64 78 C-64.33 77.34 -64.66 76.68 -65 76 C-60.7509446 70.76474409 -56.48751685 65.55208253 -52.09179688 60.43920898 C-42.74065243 49.53804769 -33.61140035 38.1990937 -26 26 C-30.77826683 28.21431878 -34.78542278 30.88121286 -39 34 C-39.66 33.67 -40.32 33.34 -41 33 C-38.9794145 30.66645164 -36.95859296 28.33310881 -34.9375 26 C-34.34130859 25.31172119 -33.74511719 24.62344238 -33.13085938 23.91430664 C-29.57137719 19.8070252 -26.00940524 15.70237974 -22.40234375 11.63671875 C-21.48385511 10.56472226 -20.59878489 9.46295031 -19.75390625 8.33203125 C-14.66585539 1.575767 -8.28818691 -1.06944347 0 0 Z " fill="#F18F09" transform="translate(216,284)"/>
<path d="M0 0 C2.125 0.375 2.125 0.375 4 1 C4.15855469 1.7734375 4.31710938 2.546875 4.48046875 3.34375 C6.45431444 12.15517163 8.62544877 18.81204077 16.0625 24.3125 C20.64964932 27.17463364 25.31447784 28.28185384 30.59375 29.26171875 C31.3878125 29.50535156 32.181875 29.74898437 33 30 C33.495 31.485 33.495 31.485 34 33 C31.62448782 35.84295167 30.00778102 36.38002607 26.375 36.8125 C19.14467676 38.11079162 13.36614316 41.54813815 9.125 47.625 C6.27350925 52.6965095 5.15907018 58.3459991 4 64 C2.125 64.625 2.125 64.625 0 65 C-2.37205677 62.62794323 -2.35053145 61.68143302 -2.8125 58.4375 C-4.23856302 50.95066914 -6.8887922 45.16993081 -13.125 40.5625 C-17.4865436 37.90159189 -21.67874636 37.01685697 -26.71484375 36.421875 C-29 36 -29 36 -31 34 C-30.625 31.875 -30.625 31.875 -30 30 C-29.23816406 29.85304687 -28.47632812 29.70609375 -27.69140625 29.5546875 C-18.87612883 27.63975832 -11.42675089 24.92225126 -6.0625 17.3125 C-3.73415407 13.1900519 -3.0473811 8.97823767 -2.45703125 4.3203125 C-2 2 -2 2 0 0 Z " fill="#FFDF7A" transform="translate(128,105)"/>
<path d="M0 0 C1.67542976 0.28604898 3.34385343 0.61781233 5 1 C5.15855469 1.7734375 5.31710937 2.546875 5.48046875 3.34375 C7.34107334 11.64965334 9.33639807 18.7452335 16.5625 23.8125 C21.65710836 26.7069416 27.30656577 27.83284598 33 29 C33.38218767 30.65614657 33.71395102 32.32457024 34 34 C32.36699117 35.63300883 30.24690864 35.3972743 28 35.6875 C20.45791718 37.01960813 14.72327049 40.37169828 10.0625 46.5 C6.74854248 51.69300559 5.72820327 56.93163942 5 63 C2.525 63.495 2.525 63.495 0 64 C-0.268125 63.030625 -0.53625 62.06125 -0.8125 61.0625 C-0.99941406 60.42441406 -1.18632812 59.78632813 -1.37890625 59.12890625 C-1.80058625 57.68352512 -2.20364883 56.23260803 -2.58984375 54.77734375 C-4.69347881 47.52042518 -8.08807902 43.11257012 -14.1875 38.6875 C-18.78155343 36.27665665 -23.9155002 35.69877393 -29 35 C-29.33 33.35 -29.66 31.7 -30 30 C-29.236875 29.7525 -28.47375 29.505 -27.6875 29.25 C-26.470625 28.8375 -25.25375 28.425 -24 28 C-23.11828125 27.72027344 -22.2365625 27.44054687 -21.328125 27.15234375 C-13.04829533 24.38867087 -8.59708032 20.70786078 -4.06640625 13.265625 C-2.50425444 9.94676768 -1.91032659 6.6126392 -1.359375 3.00390625 C-1 1 -1 1 0 0 Z " fill="#FFDF7A" transform="translate(303,413)"/>
<path d="M0 0 C0.33 0 0.66 0 1 0 C0.94199219 1.29550781 0.88398438 2.59101563 0.82421875 3.92578125 C0.20316098 24.03014532 4.64640608 39.74401014 15 57 C10.38 61.62 5.76 66.24 1 71 C-9.32175907 65.83912046 -16.56820103 53.34957468 -23 44 C-23.50144531 43.34386719 -24.00289062 42.68773437 -24.51953125 42.01171875 C-25.35652288 38.5072416 -23.36917365 35.70925606 -21.75 32.6875 C-21.38592041 31.98616943 -21.02184082 31.28483887 -20.64672852 30.56225586 C-14.95178697 19.84808449 -8.06072326 9.09604551 0 0 Z " fill="#3267B4" transform="translate(276,158)"/>
<path d="M0 0 C3.68884294 0.46831187 6.22204909 2.31631663 9.3125 4.3125 C24.31443465 13.06213135 40.08954883 12.77711484 57 13 C45.72074443 24.73540193 31.39612145 31.81636425 17 39 C8.79012508 34.17937204 1.67260036 28.571856 -5.46337891 22.33105469 C-7.94394264 20.18233631 -10.47242045 18.09309278 -13 16 C-12.13951346 11.40225974 -9.40503655 8.88984157 -6.1875 5.6875 C-5.38602539 4.84348633 -5.38602539 4.84348633 -4.56835938 3.98242188 C-2.98046875 2.38671875 -2.98046875 2.38671875 0 0 Z " fill="#3267B4" transform="translate(297,222)"/>
<path d="M0 0 C-4.00099659 4.83856432 -8.23184895 9.2758961 -12.72485352 13.65917969 C-21.22832977 21.95780368 -29.12249216 30.30720289 -36 40 C-36.63856934 40.88800293 -36.63856934 40.88800293 -37.29003906 41.79394531 C-47.08990016 55.53418243 -54.03085093 70.26315244 -60 86 C-63.96 85.67 -67.92 85.34 -72 85 C-71.41989578 79.31866182 -69.30138587 74.6848224 -66.9375 69.5625 C-66.53265381 68.67868652 -66.12780762 67.79487305 -65.71069336 66.88427734 C-55.72530928 45.30617251 -42.94341149 27.02866871 -26.53125 9.75 C-24.04166074 7.15763434 -24.04166074 7.15763434 -22.34375 4.6875 C-16.93062905 -2.45321274 -8.08913575 -0.57324584 0 0 Z " fill="#79BBCC" transform="translate(306,127)"/>
<path d="M0 0 C1.39636606 5.55443388 1.92864345 10.56159241 0 16 C-5.26464247 23.82771213 -12.85233449 29.95137433 -20 36 C-20.75684082 36.64662598 -21.51368164 37.29325195 -22.29345703 37.95947266 C-40.50606146 53.26478244 -62.64043465 66.66067078 -86 72 C-86.33 68.04 -86.66 64.08 -87 60 C-85.75347656 59.52691406 -84.50695312 59.05382812 -83.22265625 58.56640625 C-66.13999182 51.97848803 -50.44057689 44.34315332 -36 33 C-35.1961084 32.36964844 -35.1961084 32.36964844 -34.37597656 31.7265625 C-24.86313802 24.14844127 -16.35400593 15.52158073 -7.84350586 6.8581543 C-6.97089111 5.97168213 -6.09827637 5.08520996 -5.19921875 4.171875 C-4.41377686 3.3684668 -3.62833496 2.56505859 -2.8190918 1.73730469 C-1 0 -1 0 0 0 Z " fill="#79BBCB" transform="translate(385,206)"/>
<path d="M0 0 C18.15 0 36.3 0 55 0 C52.65485831 10.55313762 49.54388652 15.7805532 41 22 C34.83927013 25.6450985 27.98104408 25.81153485 21 25 C13.56801537 23.03991614 6.96529624 18.31847368 2.61328125 11.98046875 C0.1472692 7.45512032 0 5.56022034 0 0 Z " fill="#434244" transform="translate(363,125)"/>
<path d="M0 0 C4.03683748 1.88103377 7.07467136 4.55882207 10.375 7.5 C17.24261926 13.51856513 24.47872875 18.83341245 32 24 C28.23395676 27.3104735 23.86947756 28.80755142 19.25 30.5625 C18.4765625 30.86607422 17.703125 31.16964844 16.90625 31.48242188 C9.44493056 34.35553062 2.0694827 36.92600621 -6 36 C-8.4375 34.0625 -8.4375 34.0625 -11 31 C-12.59332807 29.38506748 -14.19830759 27.78157787 -15.8125 26.1875 C-17.20833333 24.79166667 -18.60416667 23.39583333 -20 22 C-18.51346494 18.53370165 -16.54277649 16.30977964 -13.8671875 13.671875 C-12.65869141 12.47304687 -12.65869141 12.47304687 -11.42578125 11.25 C-10.58402344 10.425 -9.74226563 9.6 -8.875 8.75 C-8.02550781 7.90953125 -7.17601562 7.0690625 -6.30078125 6.203125 C-4.20495077 4.13084317 -2.10459287 2.06337607 0 0 Z " fill="#F0BE08" transform="translate(281,236)"/>
<path d="M0 0 C2.90005979 2.76014462 5.22200794 5.58789743 7.5 8.875 C11.38201328 14.33040502 15.65411129 19.34628721 20.13867188 24.31591797 C24 28.68041144 24 28.68041144 24 32 C22.1640625 34.17651367 22.1640625 34.17651367 19.625 36.66796875 C18.27148438 38.00698242 18.27148438 38.00698242 16.890625 39.37304688 C15.9272427 40.31136157 14.96369892 41.2495105 14 42.1875 C13.03577654 43.13667769 12.07222608 44.08653956 11.109375 45.03710938 C8.74613254 47.36490319 6.37618518 49.68543133 4 52 C3.54616943 51.60530518 3.09233887 51.21061035 2.62475586 50.80395508 C-0.01390413 48.52306768 -2.62866948 46.27477266 -5.43359375 44.19921875 C-10.50390156 40.3742497 -10.50390156 40.3742497 -11.6796875 37.1171875 C-12.4177152 25.69946486 -5.40411524 11.31579301 -1 1 C-0.67 0.67 -0.34 0.34 0 0 Z " fill="#F1BE06" transform="translate(251,199)"/>
<path d="M0 0 C0.33 0.66 0.66 1.32 1 2 C18.82 2 36.64 2 55 2 C55 5.63 55 9.26 55 13 C36.85 13 18.7 13 0 13 C-0.33 13.66 -0.66 14.32 -1 15 C-1.02703381 13.06257659 -1.04641125 11.12504521 -1.0625 9.1875 C-1.07410156 8.10855469 -1.08570313 7.02960938 -1.09765625 5.91796875 C-1 3 -1 3 0 0 Z " fill="#6D6E71" transform="translate(363,112)"/>
<path d="M0 0 C1.32 0.33 2.64 0.66 4 1 C4.3403125 2.794375 4.3403125 2.794375 4.6875 4.625 C5.9729706 9.76688239 8.38414491 13.2560966 12.875 16.25 C15.879797 17.31051659 18.92402188 18.17185205 22 19 C22 19.99 22 20.98 22 22 C21.33613281 22.15855469 20.67226562 22.31710938 19.98828125 22.48046875 C13.51206449 24.19170267 9.52128021 26.01903125 5.8125 31.875 C4.66993288 34.86325248 3.83119359 37.91270953 3 41 C2.01 41 1.02 41 0 41 C-0.17015625 40.33613281 -0.3403125 39.67226562 -0.515625 38.98828125 C-2.41623821 31.73719285 -2.41623821 31.73719285 -7 26 C-9.93873941 24.73596871 -12.91740734 23.840191 -16 23 C-16.99 22.67 -17.98 22.34 -19 22 C-19 21.01 -19 20.02 -19 19 C-18.33613281 18.84144531 -17.67226563 18.68289062 -16.98828125 18.51953125 C-11.38258353 17.03831769 -7.60459836 15.80613115 -4 11 C-2.23812244 7.41332067 -0.78511714 3.9255857 0 0 Z " fill="#FFDF7A" transform="translate(76,169)"/>
<path d="M0 0 C1.32 0 2.64 0 4 0 C4.14695312 0.88751953 4.14695312 0.88751953 4.296875 1.79296875 C5.246509 6.81129323 6.11085299 10.42618923 10 14 C13.93212372 16.00180844 17.63795856 17.33908463 22 18 C21.796875 19.9140625 21.796875 19.9140625 21 22 C18.890625 22.8359375 18.890625 22.8359375 16.25 23.375 C11.10405943 24.75508107 8.85442864 26.32911677 6 31 C4.81180908 33.95598716 3.8397228 36.92784343 3 40 C2.01 40 1.02 40 0 40 C-0.13535156 39.34773438 -0.27070313 38.69546875 -0.41015625 38.0234375 C-1.79725569 32.39197989 -3.26575796 28.72376861 -7.94921875 25.18359375 C-11.43751106 23.17035076 -15.1151202 22.00425464 -19 21 C-18.505 19.515 -18.505 19.515 -18 18 C-16.109375 17.19140625 -16.109375 17.19140625 -13.75 16.5625 C-9.67403149 15.27705193 -6.88800155 14.3005732 -4 11 C-2.42049098 7.40453868 -1.15751932 3.75062125 0 0 Z " fill="#FFDF7A" transform="translate(355,373)"/>
<path d="M0 0 C1.32 0 2.64 0 4 0 C4.2475 1.19625 4.495 2.3925 4.75 3.625 C6.11836061 8.99391488 8.07859456 12.78867918 12.875 15.8125 C15.94682892 16.97979499 18.74345134 17.61231564 22 18 C22 19.32 22 20.64 22 22 C21.32453125 22.19335938 20.6490625 22.38671875 19.953125 22.5859375 C19.06109375 22.84632813 18.1690625 23.10671875 17.25 23.375 C16.36828125 23.63023437 15.4865625 23.88546875 14.578125 24.1484375 C9.88342506 25.56960315 9.88342506 25.56960315 6.875 29.125 C5.7792912 32.72518605 4.86892482 36.33810253 4 40 C2.68 40 1.36 40 0 40 C-0.13535156 39.34773438 -0.27070313 38.69546875 -0.41015625 38.0234375 C-1.80593167 32.35675645 -3.30273857 28.68206314 -8.015625 25.1171875 C-11.2554303 23.29320263 -14.34787962 22.64072287 -18 22 C-18 20.68 -18 19.36 -18 18 C-16.80375 17.7525 -15.6075 17.505 -14.375 17.25 C-10.25687963 16.19313725 -7.26925379 14.81307884 -4 12 C-1.93540375 8.08438642 -0.66245266 4.37218756 0 0 Z " fill="#FFDF7A" transform="translate(466,265)"/>
<path d="M0 0 C1.32 0 2.64 0 4 0 C4.13535156 0.65226562 4.27070313 1.30453125 4.41015625 1.9765625 C5.80593167 7.64324355 7.30273857 11.31793686 12.015625 14.8828125 C15.2554303 16.70679737 18.34787962 17.35927713 22 18 C22 19.32 22 20.64 22 22 C20.783125 22.268125 19.56625 22.53625 18.3125 22.8125 C12.18807192 24.38696367 12.18807192 24.38696367 7.84375 28.796875 C5.92575912 32.44105768 4.51525371 35.87797036 4 40 C2.68 40 1.36 40 0 40 C-0.09796875 39.40832031 -0.1959375 38.81664062 -0.296875 38.20703125 C-1.24937208 33.17357687 -2.15354246 29.63276546 -6 26 C-9.94803546 23.59684798 -13.42398806 22.54476333 -18 22 C-18 20.68 -18 19.36 -18 18 C-17.33613281 17.84144531 -16.67226563 17.68289062 -15.98828125 17.51953125 C-9.45246286 15.79254858 -5.53048191 13.92224696 -1.75 8.0625 C-0.786228 5.41212701 -0.38020899 2.78819925 0 0 Z " fill="#FFDF7A" transform="translate(282,24)"/>
<path d="M0 0 C3.45201639 1.47721422 5.64961936 3.43794001 8.25 6.125 C8.95640625 6.84945312 9.6628125 7.57390625 10.390625 8.3203125 C11.18726563 9.15175781 11.18726563 9.15175781 12 10 C10.62182503 13.13186511 9.0560881 15.13617198 6.55859375 17.4609375 C5.89279297 18.09773438 5.22699219 18.73453125 4.54101562 19.390625 C3.14049141 20.71182519 1.73422956 22.02697001 0.32226562 23.3359375 C-3.80628198 27.27485475 -3.80628198 27.27485475 -5.96484375 32.4765625 C-5.97644531 33.30929687 -5.98804688 34.14203125 -6 35 C-14.40368381 28.09286262 -14.40368381 28.09286262 -16 25 C-15.58940677 21.01782513 -14.36024931 18.73611731 -11.875 15.64453125 C-11.25109375 14.85755859 -10.6271875 14.07058594 -9.984375 13.25976562 C-9.32953125 12.45216797 -8.6746875 11.64457031 -8 10.8125 C-6.70704782 9.19503718 -5.41531928 7.57659522 -4.125 5.95703125 C-3.55007812 5.24522705 -2.97515625 4.53342285 -2.3828125 3.80004883 C-0.94215082 2.04283395 -0.94215082 2.04283395 0 0 Z " fill="#79BBCB" transform="translate(242,240)"/>
<path d="M0 0 C1.06816445 0.86807601 2.12918085 1.74494783 3.1875 2.625 C3.77917969 3.11226563 4.37085938 3.59953125 4.98046875 4.1015625 C7.58543045 6.55032727 9.74813905 9.22309375 12 12 C-7.34188316 28.3116548 -7.34188316 28.3116548 -12 29 C-16.87591255 26.94698419 -19.78258387 23.03559068 -23 19 C-22.00742188 18.8246875 -21.01484375 18.649375 -19.9921875 18.46875 C-14.81891517 16.98843832 -11.73089511 13.31255709 -8.125 9.5 C-7.44953125 8.81035156 -6.7740625 8.12070312 -6.078125 7.41015625 C-2.63103864 4.00435644 -2.63103864 4.00435644 0 0 Z " fill="#79BBCB" transform="translate(260,257)"/>
<path d="M0 0 C16.5 0 33 0 50 0 C50.66 1.98 51.32 3.96 52 6 C34.51 6 17.02 6 -1 6 C-0.67 4.02 -0.34 2.04 0 0 Z " fill="#414042" transform="translate(365,108)"/>
<path d="M0 0 C0.99 1.32 1.98 2.64 3 4 C-9.54 4 -22.08 4 -35 4 C-25.3554237 -5.6445763 -12.03221199 -7.52593955 0 0 Z " fill="#424244" transform="translate(406,98)"/>
</svg>
